<?xml version="1.0" encoding="UTF-8"?>
<svg width="431.02" height="62.613" version="1.1" viewBox="0 0 114.04 16.566" xmlns="http://www.w3.org/2000/svg">
<g transform="translate(-45.006 -33.561)">
<g stroke-width=".26458" aria-label="ReadKnead">
<g fill="#e62020">
<path d="m46.562 49.52q-0.43462 0-0.73096-0.29633t-0.29633-0.73096v-13.375q0-0.45438 0.29633-0.73096 0.29633-0.29633 0.73096-0.29633h3.556q1.4817 0 2.6275 0.63218 1.1458 0.61242 1.778 1.699 0.65194 1.0866 0.65194 2.5287 0 1.3434-0.65194 2.3904-0.63218 1.047-1.778 1.6397t-2.6275 0.59267h-2.5287v4.9191q0 0.43462-0.29633 0.73096-0.27658 0.29633-0.73096 0.29633zm8.1986 0q-0.27658 0-0.51364-0.11853-0.21731-0.11853-0.37536-0.37536l-3.556-5.7291 1.9953-0.57291 3.2399 5.2155q0.3556 0.57291 0.09878 1.0866-0.25682 0.49389-0.889 0.49389zm-7.1713-7.843h2.5287q0.90876 0 1.6002-0.33584 0.69145-0.3556 1.0866-0.96802 0.39511-0.63218 0.39511-1.4224 0-0.86925-0.39511-1.5409-0.39511-0.67169-1.0866-1.047-0.69145-0.37536-1.6002-0.37536h-2.5287z"/>
<path d="m62.9 49.599q-1.6397 0-2.9238-0.69145-1.2644-0.7112-1.9953-1.936-0.7112-1.2446-0.7112-2.8448 0-1.62 0.67169-2.8448 0.69145-1.2446 1.8965-1.936 1.2051-0.7112 2.7658-0.7112 1.5409 0 2.6472 0.69145 1.1063 0.67169 1.6792 1.8768 0.59267 1.1853 0.59267 2.746 0 0.37536-0.25682 0.63218-0.25682 0.23707-0.65194 0.23707h-7.9615v-1.5804h7.9022l-0.80998 0.55316q-0.01976-0.98778-0.39511-1.7582-0.37536-0.79022-1.0668-1.2446t-1.6792-0.45438q-1.1261 0-1.936 0.49389-0.79022 0.49389-1.2051 1.3631-0.41487 0.84949-0.41487 1.936t0.49389 1.936 1.3631 1.3434 1.9953 0.49389q0.61242 0 1.2446-0.21731 0.65194-0.23707 1.047-0.5334 0.29633-0.21731 0.63218-0.21731 0.3556-0.01976 0.61242 0.19756 0.33584 0.29633 0.3556 0.65193 0.01976 0.3556-0.31609 0.61242-0.67169 0.5334-1.6792 0.86925-0.98778 0.33585-1.8965 0.33585z"/>
<path d="m74.2 49.599q-1.4422 0-2.588-0.7112-1.1458-0.73096-1.8175-1.9558-0.65194-1.2446-0.65194-2.8053 0-1.5607 0.7112-2.8053 0.73096-1.2446 1.9558-1.9558 1.2446-0.73096 2.7855-0.73096t2.7658 0.73096q1.2248 0.7112 1.936 1.9558 0.73096 1.2446 0.73096 2.8053h-0.77047q0 1.5607-0.67169 2.8053-0.65194 1.2248-1.7978 1.9558-1.1458 0.7112-2.588 0.7112zm0.39511-1.778q1.0075 0 1.7978-0.47414 0.79022-0.49389 1.2446-1.3236 0.45438-0.84949 0.45438-1.8965 0-1.0668-0.45438-1.8965-0.45438-0.84949-1.2446-1.3236-0.79022-0.49389-1.7978-0.49389-0.98778 0-1.7978 0.49389-0.79022 0.47413-1.2644 1.3236-0.45438 0.82974-0.45438 1.8965 0 1.047 0.45438 1.8965 0.47413 0.82974 1.2644 1.3236 0.80998 0.47414 1.7978 0.47414zm4.4253 1.7187q-0.43462 0-0.73096-0.27658-0.27658-0.29633-0.27658-0.73096v-3.0226l0.37536-2.0941 1.6397 0.7112v4.4055q0 0.43462-0.29633 0.73096-0.27658 0.27658-0.7112 0.27658z"/>
<path d="m87.93 49.599q-1.5409 0-2.7855-0.7112-1.2248-0.73096-1.9558-1.9756-0.7112-1.2446-0.7112-2.8053 0-1.5607 0.65193-2.7855 0.67169-1.2446 1.8175-1.9558 1.1458-0.73096 2.588-0.73096 1.1656 0 2.1534 0.49389 0.98778 0.47413 1.6595 1.3039v-5.334q0-0.45438 0.27658-0.73096 0.29633-0.27658 0.73096-0.27658 0.45438 0 0.73096 0.27658 0.27658 0.27658 0.27658 0.73096v9.0086q0 1.5607-0.73096 2.8053-0.7112 1.2446-1.936 1.9756-1.2248 0.7112-2.7658 0.7112zm0-1.778q1.0075 0 1.7978-0.47414 0.79022-0.49389 1.2446-1.3434 0.45438-0.84949 0.45438-1.8965 0-1.0668-0.45438-1.8965-0.45438-0.82974-1.2446-1.3039-0.79022-0.49389-1.7978-0.49389-0.98778 0-1.7978 0.49389-0.79022 0.47413-1.2644 1.3039-0.45438 0.82974-0.45438 1.8965 0 1.047 0.45438 1.8965 0.47414 0.84949 1.2644 1.3434 0.80998 0.47414 1.7978 0.47414z"/>
</g>
<path d="m98.144 49.52q-0.41487 0-0.73096-0.29633-0.29633-0.29633-0.29633-0.73096v-13.375q0-0.43462 0.29633-0.73096 0.31609-0.29633 0.73096-0.29633 0.43462 0 0.73096 0.29633t0.29633 0.73096v5.9267l6.5391-6.5391q0.23707-0.23707 0.43462-0.31609 0.19756-0.09878 0.41487-0.09878 0.49389 0 0.7112 0.29633t0.15805 0.7112q-0.0593 0.39511-0.37536 0.73096l-5.0377 5.0574 5.1365 6.9935q0.23707 0.33585 0.19756 0.73096-0.0395 0.37536-0.27658 0.65193-0.23707 0.25682-0.63218 0.25682-0.55316 0-0.84949-0.43462l-4.9982-6.7762-1.4224 1.4224v4.7611q0 0.43462-0.29633 0.73096t-0.73096 0.29633z"/>
<path d="m118.63 49.54q-0.43463 0-0.73096-0.27658-0.27658-0.29633-0.27658-0.73096v-4.8599q0-1.1261-0.41487-1.8373-0.41486-0.7112-1.1261-1.047-0.69144-0.3556-1.6002-0.3556-0.82973 0-1.5014 0.33584-0.6717 0.33585-1.0668 0.90876-0.39511 0.55316-0.39511 1.2841h-1.2446q0-1.2446 0.59267-2.2126 0.61242-0.98778 1.6595-1.5607 1.047-0.57291 2.3509-0.57291 1.3631 0 2.4299 0.59267 1.0866 0.57291 1.699 1.699 0.63218 1.1261 0.63218 2.7658v4.8599q0 0.43462-0.29633 0.73096-0.27658 0.27658-0.7112 0.27658zm-8.1196 0q-0.43463 0-0.73096-0.27658-0.27658-0.29633-0.27658-0.73096v-8.811q0-0.45438 0.27658-0.73096 0.29633-0.27658 0.73096-0.27658 0.45437 0 0.73095 0.27658 0.27658 0.27658 0.27658 0.73096v8.811q0 0.43462-0.27658 0.73096-0.27658 0.27658-0.73095 0.27658z"/>
<path d="m128.05 49.599q-1.6397 0-2.9238-0.69145-1.2644-0.7112-1.9953-1.936-0.7112-1.2446-0.7112-2.8448 0-1.62 0.67169-2.8448 0.69144-1.2446 1.8965-1.936 1.2051-0.7112 2.7658-0.7112 1.5409 0 2.6472 0.69145 1.1063 0.67169 1.6792 1.8768 0.59266 1.1853 0.59266 2.746 0 0.37536-0.25682 0.63218-0.25682 0.23707-0.65193 0.23707h-7.9615v-1.5804h7.9022l-0.80998 0.55316q-0.0198-0.98778-0.39511-1.7582-0.37536-0.79022-1.0668-1.2446-0.69145-0.45438-1.6792-0.45438-1.1261 0-1.936 0.49389-0.79022 0.49389-1.2051 1.3631-0.41487 0.84949-0.41487 1.936t0.49389 1.936 1.3631 1.3434q0.86924 0.49389 1.9953 0.49389 0.61243 0 1.2446-0.21731 0.65193-0.23707 1.047-0.5334 0.29634-0.21731 0.63218-0.21731 0.3556-0.01976 0.61243 0.19756 0.33584 0.29633 0.3556 0.65193 0.0198 0.3556-0.31609 0.61242-0.67169 0.5334-1.6792 0.86925-0.98778 0.33585-1.8965 0.33585z"/>
<path d="m139.35 49.599q-1.4422 0-2.588-0.7112-1.1458-0.73096-1.8175-1.9558-0.65193-1.2446-0.65193-2.8053 0-1.5607 0.7112-2.8053 0.73095-1.2446 1.9558-1.9558 1.2446-0.73096 2.7855-0.73096t2.7658 0.73096q1.2248 0.7112 1.936 1.9558 0.73096 1.2446 0.73096 2.8053h-0.77047q0 1.5607-0.67169 2.8053-0.65193 1.2248-1.7978 1.9558-1.1458 0.7112-2.588 0.7112zm0.39511-1.778q1.0075 0 1.7978-0.47414 0.79022-0.49389 1.2446-1.3236 0.45438-0.84949 0.45438-1.8965 0-1.0668-0.45438-1.8965-0.45438-0.84949-1.2446-1.3236-0.79022-0.49389-1.7978-0.49389-0.98778 0-1.7978 0.49389-0.79022 0.47413-1.2644 1.3236-0.45438 0.82974-0.45438 1.8965 0 1.047 0.45438 1.8965 0.47414 0.82974 1.2644 1.3236 0.80998 0.47414 1.7978 0.47414zm4.4253 1.7187q-0.43463 0-0.73096-0.27658-0.27658-0.29633-0.27658-0.73096v-3.0226l0.37536-2.0941 1.6397 0.7112v4.4055q0 0.43462-0.29633 0.73096-0.27658 0.27658-0.7112 0.27658z"/>
<path d="m153.08 49.599q-1.5409 0-2.7855-0.7112-1.2248-0.73096-1.9558-1.9756-0.7112-1.2446-0.7112-2.8053 0-1.5607 0.65193-2.7855 0.6717-1.2446 1.8175-1.9558 1.1458-0.73096 2.588-0.73096 1.1656 0 2.1534 0.49389 0.98778 0.47413 1.6595 1.3039v-5.334q0-0.45438 0.27658-0.73096 0.29634-0.27658 0.73096-0.27658 0.45438 0 0.73096 0.27658t0.27658 0.73096v9.0086q0 1.5607-0.73096 2.8053-0.7112 1.2446-1.936 1.9756-1.2248 0.7112-2.7658 0.7112zm0-1.778q1.0075 0 1.7978-0.47414 0.79022-0.49389 1.2446-1.3434 0.45438-0.84949 0.45438-1.8965 0-1.0668-0.45438-1.8965t-1.2446-1.3039q-0.79023-0.49389-1.7978-0.49389-0.98778 0-1.7978 0.49389-0.79023 0.47413-1.2644 1.3039-0.45438 0.82974-0.45438 1.8965 0 1.047 0.45438 1.8965 0.47413 0.84949 1.2644 1.3434 0.80998 0.47414 1.7978 0.47414z"/>
</g>
</g>
</svg>
